<mxfile host="app.diagrams.net" modified="2023-06-02T04:40:07.721Z" agent="Mozilla/5.0 (Windows NT 10.0; Win64; x64) AppleWebKit/537.36 (KHTML, like Gecko) Chrome/113.0.0.0 Safari/537.36 Edg/113.0.1774.57" etag="amNFGPy3CRfWiOCXXUtE" version="21.3.7" type="google">
  <diagram name="Page-1" id="sjQcjP6nZ6vpDzcqpWq9">
    <mxGraphModel grid="1" page="1" gridSize="10" guides="1" tooltips="1" connect="1" arrows="1" fold="1" pageScale="1" pageWidth="2336" pageHeight="1654" math="0" shadow="0">
      <root>
        <mxCell id="0" />
        <mxCell id="1" parent="0" />
        <mxCell id="sGOGW33jDADOlJUQ6Ie_-1" value="Start" style="ellipse;whiteSpace=wrap;html=1;" vertex="1" parent="1">
          <mxGeometry x="1559.8899999999999" y="20" width="120" height="80" as="geometry" />
        </mxCell>
        <mxCell id="sGOGW33jDADOlJUQ6Ie_-3" value="Initialize Server" style="rounded=0;whiteSpace=wrap;html=1;" vertex="1" parent="1">
          <mxGeometry x="1559.8899999999999" y="180" width="120" height="60" as="geometry" />
        </mxCell>
        <mxCell id="sGOGW33jDADOlJUQ6Ie_-4" value="" style="endArrow=classic;html=1;rounded=0;exitX=0.5;exitY=1;exitDx=0;exitDy=0;" edge="1" parent="1" source="sGOGW33jDADOlJUQ6Ie_-1" target="sGOGW33jDADOlJUQ6Ie_-3">
          <mxGeometry width="50" height="50" relative="1" as="geometry">
            <mxPoint x="1629.8899999999999" y="310" as="sourcePoint" />
            <mxPoint x="1679.8899999999999" y="260" as="targetPoint" />
          </mxGeometry>
        </mxCell>
        <mxCell id="sGOGW33jDADOlJUQ6Ie_-5" value="Start" style="ellipse;whiteSpace=wrap;html=1;" vertex="1" parent="1">
          <mxGeometry x="340" y="40" width="120" height="80" as="geometry" />
        </mxCell>
        <mxCell id="sGOGW33jDADOlJUQ6Ie_-6" value="Welcome" style="rounded=0;whiteSpace=wrap;html=1;" vertex="1" parent="1">
          <mxGeometry x="340" y="200" width="120" height="60" as="geometry" />
        </mxCell>
        <mxCell id="sGOGW33jDADOlJUQ6Ie_-7" value="" style="endArrow=classic;html=1;rounded=0;exitX=0.5;exitY=1;exitDx=0;exitDy=0;" edge="1" parent="1" source="sGOGW33jDADOlJUQ6Ie_-5" target="sGOGW33jDADOlJUQ6Ie_-6">
          <mxGeometry width="50" height="50" relative="1" as="geometry">
            <mxPoint x="410" y="330" as="sourcePoint" />
            <mxPoint x="460" y="280" as="targetPoint" />
          </mxGeometry>
        </mxCell>
        <mxCell id="sGOGW33jDADOlJUQ6Ie_-8" value="Load Questions From QuestionBank" style="rounded=0;whiteSpace=wrap;html=1;" vertex="1" parent="1">
          <mxGeometry x="1559.8899999999999" y="310" width="120" height="60" as="geometry" />
        </mxCell>
        <mxCell id="sGOGW33jDADOlJUQ6Ie_-9" value="" style="endArrow=classic;html=1;rounded=0;exitX=0.5;exitY=1;exitDx=0;exitDy=0;" edge="1" parent="1" source="sGOGW33jDADOlJUQ6Ie_-3" target="sGOGW33jDADOlJUQ6Ie_-8">
          <mxGeometry width="50" height="50" relative="1" as="geometry">
            <mxPoint x="1289.8899999999999" y="380" as="sourcePoint" />
            <mxPoint x="1339.8899999999999" y="330" as="targetPoint" />
          </mxGeometry>
        </mxCell>
        <mxCell id="sGOGW33jDADOlJUQ6Ie_-10" value="Enter Player Name" style="rounded=0;whiteSpace=wrap;html=1;" vertex="1" parent="1">
          <mxGeometry x="340" y="330" width="120" height="60" as="geometry" />
        </mxCell>
        <mxCell id="sGOGW33jDADOlJUQ6Ie_-11" value="" style="endArrow=classic;html=1;rounded=0;exitX=0.5;exitY=1;exitDx=0;exitDy=0;entryX=0.5;entryY=0;entryDx=0;entryDy=0;" edge="1" parent="1" source="sGOGW33jDADOlJUQ6Ie_-6" target="sGOGW33jDADOlJUQ6Ie_-10">
          <mxGeometry width="50" height="50" relative="1" as="geometry">
            <mxPoint x="720" y="410" as="sourcePoint" />
            <mxPoint x="770" y="360" as="targetPoint" />
          </mxGeometry>
        </mxCell>
        <mxCell id="sGOGW33jDADOlJUQ6Ie_-12" value="Menu" style="rounded=0;whiteSpace=wrap;html=1;" vertex="1" parent="1">
          <mxGeometry x="340" y="450" width="120" height="60" as="geometry" />
        </mxCell>
        <mxCell id="sGOGW33jDADOlJUQ6Ie_-13" value="" style="endArrow=classic;html=1;rounded=0;exitX=0.5;exitY=1;exitDx=0;exitDy=0;entryX=0.5;entryY=0;entryDx=0;entryDy=0;" edge="1" parent="1" source="sGOGW33jDADOlJUQ6Ie_-10" target="sGOGW33jDADOlJUQ6Ie_-12">
          <mxGeometry width="50" height="50" relative="1" as="geometry">
            <mxPoint x="720" y="410" as="sourcePoint" />
            <mxPoint x="770" y="360" as="targetPoint" />
          </mxGeometry>
        </mxCell>
        <mxCell id="56DCosw7rQej9qdlcNKe-1" value="Recv Message" style="rounded=0;whiteSpace=wrap;html=1;" vertex="1" parent="1">
          <mxGeometry x="1559.8899999999999" y="440" width="120" height="60" as="geometry" />
        </mxCell>
        <mxCell id="56DCosw7rQej9qdlcNKe-2" value="" style="endArrow=classic;html=1;rounded=0;exitX=0.5;exitY=1;exitDx=0;exitDy=0;" edge="1" parent="1" target="56DCosw7rQej9qdlcNKe-1">
          <mxGeometry width="50" height="50" relative="1" as="geometry">
            <mxPoint x="1619.8899999999999" y="370" as="sourcePoint" />
            <mxPoint x="1339.8899999999999" y="460" as="targetPoint" />
          </mxGeometry>
        </mxCell>
        <mxCell id="56DCosw7rQej9qdlcNKe-3" value="Handling Error" style="rounded=0;whiteSpace=wrap;html=1;" vertex="1" parent="1">
          <mxGeometry x="1559.8899999999999" y="570" width="120" height="60" as="geometry" />
        </mxCell>
        <mxCell id="56DCosw7rQej9qdlcNKe-4" value="" style="endArrow=classic;html=1;rounded=0;exitX=0.5;exitY=1;exitDx=0;exitDy=0;" edge="1" parent="1" target="56DCosw7rQej9qdlcNKe-3">
          <mxGeometry width="50" height="50" relative="1" as="geometry">
            <mxPoint x="1619.8899999999999" y="500" as="sourcePoint" />
            <mxPoint x="1339.8899999999999" y="590" as="targetPoint" />
          </mxGeometry>
        </mxCell>
        <mxCell id="56DCosw7rQej9qdlcNKe-5" value="Handling Header" style="rounded=0;whiteSpace=wrap;html=1;" vertex="1" parent="1">
          <mxGeometry x="1559.8899999999999" y="700" width="120" height="60" as="geometry" />
        </mxCell>
        <mxCell id="56DCosw7rQej9qdlcNKe-6" value="" style="endArrow=classic;html=1;rounded=0;exitX=0.5;exitY=1;exitDx=0;exitDy=0;" edge="1" parent="1" target="56DCosw7rQej9qdlcNKe-5">
          <mxGeometry width="50" height="50" relative="1" as="geometry">
            <mxPoint x="1619.8899999999999" y="630" as="sourcePoint" />
            <mxPoint x="1339.8899999999999" y="720" as="targetPoint" />
          </mxGeometry>
        </mxCell>
        <mxCell id="sGOGW33jDADOlJUQ6Ie_-16" value="Challenge Player" style="rounded=0;whiteSpace=wrap;html=1;" vertex="1" parent="1">
          <mxGeometry x="550" y="690" width="120" height="60" as="geometry" />
        </mxCell>
        <mxCell id="56DCosw7rQej9qdlcNKe-10" style="edgeStyle=orthogonalEdgeStyle;rounded=0;orthogonalLoop=1;jettySize=auto;html=1;entryX=0;entryY=0.5;entryDx=0;entryDy=0;exitX=0;exitY=0.5;exitDx=0;exitDy=0;" edge="1" parent="1" source="56DCosw7rQej9qdlcNKe-7" target="56DCosw7rQej9qdlcNKe-1">
          <mxGeometry relative="1" as="geometry">
            <Array as="points">
              <mxPoint x="1279.8899999999999" y="890" />
              <mxPoint x="1279.8899999999999" y="470" />
            </Array>
          </mxGeometry>
        </mxCell>
        <mxCell id="56DCosw7rQej9qdlcNKe-7" value="Get Player Name" style="rounded=0;whiteSpace=wrap;html=1;" vertex="1" parent="1">
          <mxGeometry x="1369.8899999999999" y="860" width="120" height="60" as="geometry" />
        </mxCell>
        <mxCell id="56DCosw7rQej9qdlcNKe-8" value="" style="endArrow=classic;html=1;rounded=0;exitX=0.5;exitY=1;exitDx=0;exitDy=0;entryX=1;entryY=0.5;entryDx=0;entryDy=0;" edge="1" parent="1" source="56DCosw7rQej9qdlcNKe-5" target="56DCosw7rQej9qdlcNKe-7">
          <mxGeometry width="50" height="50" relative="1" as="geometry">
            <mxPoint x="1419.8899999999999" y="630" as="sourcePoint" />
            <mxPoint x="1139.8899999999999" y="720" as="targetPoint" />
            <Array as="points">
              <mxPoint x="1619.8899999999999" y="890" />
            </Array>
          </mxGeometry>
        </mxCell>
        <mxCell id="sGOGW33jDADOlJUQ6Ie_-18" value="" style="endArrow=classic;html=1;rounded=0;" edge="1" parent="1">
          <mxGeometry width="50" height="50" relative="1" as="geometry">
            <mxPoint x="400" y="510" as="sourcePoint" />
            <mxPoint x="400" y="590" as="targetPoint" />
          </mxGeometry>
        </mxCell>
        <mxCell id="sGOGW33jDADOlJUQ6Ie_-19" value="Receive Challenge" style="rounded=0;whiteSpace=wrap;html=1;" vertex="1" parent="1">
          <mxGeometry x="720" y="590" width="120" height="60" as="geometry" />
        </mxCell>
        <mxCell id="sGOGW33jDADOlJUQ6Ie_-21" value="" style="endArrow=classic;html=1;rounded=0;entryX=0.5;entryY=0;entryDx=0;entryDy=0;" edge="1" parent="1">
          <mxGeometry width="50" height="50" relative="1" as="geometry">
            <mxPoint x="780" y="650" as="sourcePoint" />
            <mxPoint x="780" y="760" as="targetPoint" />
            <Array as="points">
              <mxPoint x="780" y="700" />
            </Array>
          </mxGeometry>
        </mxCell>
        <mxCell id="56DCosw7rQej9qdlcNKe-11" value="Send Active Player List" style="rounded=0;whiteSpace=wrap;html=1;" vertex="1" parent="1">
          <mxGeometry x="1369.8899999999999" y="990" width="120" height="60" as="geometry" />
        </mxCell>
        <mxCell id="sGOGW33jDADOlJUQ6Ie_-24" value="Start Game" style="rounded=0;whiteSpace=wrap;html=1;" vertex="1" parent="1">
          <mxGeometry x="340" y="590" width="120" height="60" as="geometry" />
        </mxCell>
        <mxCell id="56DCosw7rQej9qdlcNKe-12" value="" style="endArrow=classic;html=1;rounded=0;exitX=0.5;exitY=1;exitDx=0;exitDy=0;entryX=1;entryY=0.5;entryDx=0;entryDy=0;" edge="1" parent="1" target="56DCosw7rQej9qdlcNKe-11">
          <mxGeometry width="50" height="50" relative="1" as="geometry">
            <mxPoint x="1619.8899999999999" y="890" as="sourcePoint" />
            <mxPoint x="1139.8899999999999" y="850" as="targetPoint" />
            <Array as="points">
              <mxPoint x="1619.8899999999999" y="1020" />
            </Array>
          </mxGeometry>
        </mxCell>
        <mxCell id="56DCosw7rQej9qdlcNKe-13" value="Forward challenge message" style="rounded=0;whiteSpace=wrap;html=1;" vertex="1" parent="1">
          <mxGeometry x="1369.8899999999999" y="1120" width="120" height="60" as="geometry" />
        </mxCell>
        <mxCell id="56DCosw7rQej9qdlcNKe-14" value="" style="endArrow=classic;html=1;rounded=0;exitX=0.5;exitY=1;exitDx=0;exitDy=0;entryX=1;entryY=0.5;entryDx=0;entryDy=0;" edge="1" parent="1" target="56DCosw7rQej9qdlcNKe-13">
          <mxGeometry width="50" height="50" relative="1" as="geometry">
            <mxPoint x="1619.8899999999999" y="1020" as="sourcePoint" />
            <mxPoint x="1139.8899999999999" y="980" as="targetPoint" />
            <Array as="points">
              <mxPoint x="1619.8899999999999" y="1150" />
            </Array>
          </mxGeometry>
        </mxCell>
        <mxCell id="sGOGW33jDADOlJUQ6Ie_-26" value="" style="endArrow=classic;html=1;rounded=0;entryX=0.5;entryY=0;entryDx=0;entryDy=0;" edge="1" parent="1" target="O86maG589rp5_lnj7lRw-1">
          <mxGeometry width="50" height="50" relative="1" as="geometry">
            <mxPoint x="400" y="540" as="sourcePoint" />
            <mxPoint x="780" y="560" as="targetPoint" />
            <Array as="points">
              <mxPoint x="610" y="540" />
            </Array>
          </mxGeometry>
        </mxCell>
        <mxCell id="56DCosw7rQej9qdlcNKe-15" value="Forward challenge message response" style="rounded=0;whiteSpace=wrap;html=1;" vertex="1" parent="1">
          <mxGeometry x="1369.8899999999999" y="1239" width="120" height="60" as="geometry" />
        </mxCell>
        <mxCell id="sGOGW33jDADOlJUQ6Ie_-27" value="" style="endArrow=classic;html=1;rounded=0;entryX=0.5;entryY=0;entryDx=0;entryDy=0;" edge="1" parent="1" target="sGOGW33jDADOlJUQ6Ie_-19">
          <mxGeometry width="50" height="50" relative="1" as="geometry">
            <mxPoint x="610" y="540" as="sourcePoint" />
            <mxPoint x="780" y="560" as="targetPoint" />
            <Array as="points">
              <mxPoint x="780" y="540" />
            </Array>
          </mxGeometry>
        </mxCell>
        <mxCell id="56DCosw7rQej9qdlcNKe-16" value="" style="endArrow=classic;html=1;rounded=0;exitX=0.5;exitY=1;exitDx=0;exitDy=0;entryX=1;entryY=0.5;entryDx=0;entryDy=0;" edge="1" parent="1" target="56DCosw7rQej9qdlcNKe-15">
          <mxGeometry width="50" height="50" relative="1" as="geometry">
            <mxPoint x="1619.8899999999999" y="1139" as="sourcePoint" />
            <mxPoint x="1139.8899999999999" y="1099" as="targetPoint" />
            <Array as="points">
              <mxPoint x="1619.8899999999999" y="1269" />
            </Array>
          </mxGeometry>
        </mxCell>
        <mxCell id="56DCosw7rQej9qdlcNKe-43" style="edgeStyle=orthogonalEdgeStyle;rounded=0;orthogonalLoop=1;jettySize=auto;html=1;entryX=1;entryY=0.5;entryDx=0;entryDy=0;exitX=1;exitY=0.5;exitDx=0;exitDy=0;" edge="1" parent="1" source="56DCosw7rQej9qdlcNKe-17" target="56DCosw7rQej9qdlcNKe-1">
          <mxGeometry relative="1" as="geometry">
            <Array as="points">
              <mxPoint x="1900" y="890" />
              <mxPoint x="1970" y="890" />
              <mxPoint x="1970" y="470" />
            </Array>
          </mxGeometry>
        </mxCell>
        <mxCell id="56DCosw7rQej9qdlcNKe-17" value="Start game" style="rounded=0;whiteSpace=wrap;html=1;" vertex="1" parent="1">
          <mxGeometry x="1749.9999999999998" y="860" width="120" height="60" as="geometry" />
        </mxCell>
        <mxCell id="56DCosw7rQej9qdlcNKe-18" value="" style="endArrow=classic;html=1;rounded=0;exitX=0.5;exitY=1;exitDx=0;exitDy=0;" edge="1" parent="1">
          <mxGeometry width="50" height="50" relative="1" as="geometry">
            <mxPoint x="1619.8899999999999" y="760" as="sourcePoint" />
            <mxPoint x="1749.8899999999999" y="890" as="targetPoint" />
            <Array as="points">
              <mxPoint x="1619.8899999999999" y="890" />
            </Array>
          </mxGeometry>
        </mxCell>
        <mxCell id="sGOGW33jDADOlJUQ6Ie_-28" value="" style="endArrow=classic;html=1;rounded=0;exitX=0.5;exitY=1;exitDx=0;exitDy=0;entryX=0.5;entryY=0;entryDx=0;entryDy=0;" edge="1" parent="1" source="sGOGW33jDADOlJUQ6Ie_-16" target="sGOGW33jDADOlJUQ6Ie_-29">
          <mxGeometry width="50" height="50" relative="1" as="geometry">
            <mxPoint x="590" y="790" as="sourcePoint" />
            <mxPoint x="610" y="790" as="targetPoint" />
          </mxGeometry>
        </mxCell>
        <mxCell id="sGOGW33jDADOlJUQ6Ie_-29" value="Receive Response" style="rounded=0;whiteSpace=wrap;html=1;" vertex="1" parent="1">
          <mxGeometry x="550" y="840" width="120" height="60" as="geometry" />
        </mxCell>
        <mxCell id="56DCosw7rQej9qdlcNKe-19" value="Send Question" style="rounded=0;whiteSpace=wrap;html=1;" vertex="1" parent="1">
          <mxGeometry x="1749.9999999999998" y="990" width="120" height="60" as="geometry" />
        </mxCell>
        <mxCell id="56DCosw7rQej9qdlcNKe-20" value="" style="endArrow=classic;html=1;rounded=0;exitX=0.5;exitY=1;exitDx=0;exitDy=0;" edge="1" parent="1">
          <mxGeometry width="50" height="50" relative="1" as="geometry">
            <mxPoint x="1619.9999999999998" y="890" as="sourcePoint" />
            <mxPoint x="1749.9999999999998" y="1020" as="targetPoint" />
            <Array as="points">
              <mxPoint x="1619.9999999999998" y="1020" />
            </Array>
          </mxGeometry>
        </mxCell>
        <mxCell id="56DCosw7rQej9qdlcNKe-23" value="Handle Player&#39;s answer" style="rounded=0;whiteSpace=wrap;html=1;" vertex="1" parent="1">
          <mxGeometry x="1749.8899999999999" y="1120" width="120" height="60" as="geometry" />
        </mxCell>
        <mxCell id="56DCosw7rQej9qdlcNKe-24" value="" style="endArrow=classic;html=1;rounded=0;exitX=0.5;exitY=1;exitDx=0;exitDy=0;" edge="1" parent="1">
          <mxGeometry width="50" height="50" relative="1" as="geometry">
            <mxPoint x="1619.8899999999999" y="1020" as="sourcePoint" />
            <mxPoint x="1749.8899999999999" y="1150" as="targetPoint" />
            <Array as="points">
              <mxPoint x="1619.8899999999999" y="1150" />
            </Array>
          </mxGeometry>
        </mxCell>
        <mxCell id="56DCosw7rQej9qdlcNKe-26" value="Handle Life Line" style="rounded=0;whiteSpace=wrap;html=1;" vertex="1" parent="1">
          <mxGeometry x="1749.8899999999999" y="1239" width="120" height="60" as="geometry" />
        </mxCell>
        <mxCell id="56DCosw7rQej9qdlcNKe-27" value="" style="endArrow=classic;html=1;rounded=0;exitX=0.5;exitY=1;exitDx=0;exitDy=0;" edge="1" parent="1">
          <mxGeometry width="50" height="50" relative="1" as="geometry">
            <mxPoint x="1619.8899999999999" y="1139" as="sourcePoint" />
            <mxPoint x="1749.8899999999999" y="1269" as="targetPoint" />
            <Array as="points">
              <mxPoint x="1619.8899999999999" y="1269" />
            </Array>
          </mxGeometry>
        </mxCell>
        <mxCell id="56DCosw7rQej9qdlcNKe-30" value="Surrender" style="rounded=0;whiteSpace=wrap;html=1;" vertex="1" parent="1">
          <mxGeometry x="1369.8899999999999" y="1360" width="120" height="60" as="geometry" />
        </mxCell>
        <mxCell id="56DCosw7rQej9qdlcNKe-31" value="" style="endArrow=classic;html=1;rounded=0;exitX=0.5;exitY=1;exitDx=0;exitDy=0;entryX=1;entryY=0.5;entryDx=0;entryDy=0;" edge="1" parent="1" target="56DCosw7rQej9qdlcNKe-30">
          <mxGeometry width="50" height="50" relative="1" as="geometry">
            <mxPoint x="1619.8899999999999" y="1260" as="sourcePoint" />
            <mxPoint x="1139.8899999999999" y="1220" as="targetPoint" />
            <Array as="points">
              <mxPoint x="1619.8899999999999" y="1390" />
            </Array>
          </mxGeometry>
        </mxCell>
        <mxCell id="56DCosw7rQej9qdlcNKe-32" value="Send Player&#39;s Point" style="rounded=0;whiteSpace=wrap;html=1;" vertex="1" parent="1">
          <mxGeometry x="1749.89" y="1470" width="120" height="60" as="geometry" />
        </mxCell>
        <mxCell id="56DCosw7rQej9qdlcNKe-34" value="Game over" style="rounded=0;whiteSpace=wrap;html=1;" vertex="1" parent="1">
          <mxGeometry x="1749.8899999999999" y="1360" width="120" height="60" as="geometry" />
        </mxCell>
        <mxCell id="56DCosw7rQej9qdlcNKe-35" value="" style="endArrow=classic;html=1;rounded=0;exitX=0.5;exitY=1;exitDx=0;exitDy=0;" edge="1" parent="1">
          <mxGeometry width="50" height="50" relative="1" as="geometry">
            <mxPoint x="1619.8899999999999" y="1260" as="sourcePoint" />
            <mxPoint x="1749.8899999999999" y="1390" as="targetPoint" />
            <Array as="points">
              <mxPoint x="1619.8899999999999" y="1390" />
            </Array>
          </mxGeometry>
        </mxCell>
        <mxCell id="56DCosw7rQej9qdlcNKe-39" value="" style="endArrow=none;html=1;rounded=0;exitX=0;exitY=0.5;exitDx=0;exitDy=0;" edge="1" parent="1">
          <mxGeometry width="50" height="50" relative="1" as="geometry">
            <mxPoint x="1369.89" y="1140" as="sourcePoint" />
            <mxPoint x="1279.89" y="1010" as="targetPoint" />
            <Array as="points">
              <mxPoint x="1279.89" y="1140" />
            </Array>
          </mxGeometry>
        </mxCell>
        <mxCell id="56DCosw7rQej9qdlcNKe-38" value="" style="endArrow=none;html=1;rounded=0;exitX=0;exitY=0.5;exitDx=0;exitDy=0;" edge="1" parent="1" source="56DCosw7rQej9qdlcNKe-11">
          <mxGeometry width="50" height="50" relative="1" as="geometry">
            <mxPoint x="1390" y="980" as="sourcePoint" />
            <mxPoint x="1280" y="890" as="targetPoint" />
            <Array as="points">
              <mxPoint x="1280" y="1020" />
            </Array>
          </mxGeometry>
        </mxCell>
        <mxCell id="56DCosw7rQej9qdlcNKe-41" value="" style="endArrow=none;html=1;rounded=0;exitX=0;exitY=0.5;exitDx=0;exitDy=0;" edge="1" parent="1">
          <mxGeometry width="50" height="50" relative="1" as="geometry">
            <mxPoint x="1369.89" y="1400" as="sourcePoint" />
            <mxPoint x="1279.89" y="1270" as="targetPoint" />
            <Array as="points">
              <mxPoint x="1279.89" y="1400" />
            </Array>
          </mxGeometry>
        </mxCell>
        <mxCell id="56DCosw7rQej9qdlcNKe-40" value="" style="endArrow=none;html=1;rounded=0;exitX=0;exitY=0.5;exitDx=0;exitDy=0;" edge="1" parent="1">
          <mxGeometry width="50" height="50" relative="1" as="geometry">
            <mxPoint x="1369.89" y="1270" as="sourcePoint" />
            <mxPoint x="1279.89" y="1140" as="targetPoint" />
            <Array as="points">
              <mxPoint x="1279.89" y="1270" />
            </Array>
          </mxGeometry>
        </mxCell>
        <mxCell id="56DCosw7rQej9qdlcNKe-44" value="" style="endArrow=none;html=1;rounded=0;exitX=1;exitY=0.5;exitDx=0;exitDy=0;" edge="1" parent="1" source="56DCosw7rQej9qdlcNKe-19">
          <mxGeometry width="50" height="50" relative="1" as="geometry">
            <mxPoint x="1390" y="1230" as="sourcePoint" />
            <mxPoint x="1970" y="890" as="targetPoint" />
            <Array as="points">
              <mxPoint x="1970" y="1020" />
            </Array>
          </mxGeometry>
        </mxCell>
        <mxCell id="56DCosw7rQej9qdlcNKe-46" value="" style="endArrow=none;html=1;rounded=0;exitX=1;exitY=0.5;exitDx=0;exitDy=0;" edge="1" parent="1">
          <mxGeometry width="50" height="50" relative="1" as="geometry">
            <mxPoint x="1869.89" y="1270" as="sourcePoint" />
            <mxPoint x="1969.89" y="1140" as="targetPoint" />
            <Array as="points">
              <mxPoint x="1969.89" y="1270" />
            </Array>
          </mxGeometry>
        </mxCell>
        <mxCell id="56DCosw7rQej9qdlcNKe-45" value="" style="endArrow=none;html=1;rounded=0;exitX=1;exitY=0.5;exitDx=0;exitDy=0;" edge="1" parent="1">
          <mxGeometry width="50" height="50" relative="1" as="geometry">
            <mxPoint x="1869.89" y="1150" as="sourcePoint" />
            <mxPoint x="1969.89" y="1020" as="targetPoint" />
            <Array as="points">
              <mxPoint x="1969.89" y="1150" />
            </Array>
          </mxGeometry>
        </mxCell>
        <mxCell id="sGOGW33jDADOlJUQ6Ie_-39" value="Exit Program" style="rounded=0;whiteSpace=wrap;html=1;" vertex="1" parent="1">
          <mxGeometry x="950" y="590" width="120" height="60" as="geometry" />
        </mxCell>
        <mxCell id="sGOGW33jDADOlJUQ6Ie_-41" value="" style="endArrow=classic;html=1;rounded=0;entryX=0.5;entryY=0;entryDx=0;entryDy=0;" edge="1" parent="1" target="sGOGW33jDADOlJUQ6Ie_-39">
          <mxGeometry width="50" height="50" relative="1" as="geometry">
            <mxPoint x="780" y="540" as="sourcePoint" />
            <mxPoint x="730" y="560" as="targetPoint" />
            <Array as="points">
              <mxPoint x="1010" y="540" />
            </Array>
          </mxGeometry>
        </mxCell>
        <mxCell id="sGOGW33jDADOlJUQ6Ie_-42" value="" style="endArrow=classic;html=1;rounded=0;exitX=0.5;exitY=1;exitDx=0;exitDy=0;entryX=0.5;entryY=0;entryDx=0;entryDy=0;" edge="1" parent="1" source="sGOGW33jDADOlJUQ6Ie_-39" target="sGOGW33jDADOlJUQ6Ie_-43">
          <mxGeometry width="50" height="50" relative="1" as="geometry">
            <mxPoint x="680" y="710" as="sourcePoint" />
            <mxPoint x="1080" y="690" as="targetPoint" />
          </mxGeometry>
        </mxCell>
        <mxCell id="sGOGW33jDADOlJUQ6Ie_-43" value="End" style="ellipse;whiteSpace=wrap;html=1;" vertex="1" parent="1">
          <mxGeometry x="950" y="700" width="120" height="80" as="geometry" />
        </mxCell>
        <mxCell id="sGOGW33jDADOlJUQ6Ie_-51" value="End Game" style="rounded=0;whiteSpace=wrap;html=1;" vertex="1" parent="1">
          <mxGeometry x="340" y="690" width="120" height="60" as="geometry" />
        </mxCell>
        <mxCell id="sGOGW33jDADOlJUQ6Ie_-52" value="" style="endArrow=classic;html=1;rounded=0;exitX=0.5;exitY=1;exitDx=0;exitDy=0;entryX=0.5;entryY=0;entryDx=0;entryDy=0;" edge="1" parent="1" source="sGOGW33jDADOlJUQ6Ie_-24" target="sGOGW33jDADOlJUQ6Ie_-51">
          <mxGeometry width="50" height="50" relative="1" as="geometry">
            <mxPoint x="540" y="810" as="sourcePoint" />
            <mxPoint x="590" y="760" as="targetPoint" />
          </mxGeometry>
        </mxCell>
        <mxCell id="sGOGW33jDADOlJUQ6Ie_-56" value="Start Game" style="ellipse;whiteSpace=wrap;html=1;" vertex="1" parent="1">
          <mxGeometry x="320" y="1070" width="120" height="80" as="geometry" />
        </mxCell>
        <mxCell id="sGOGW33jDADOlJUQ6Ie_-57" value="End Game" style="ellipse;whiteSpace=wrap;html=1;" vertex="1" parent="1">
          <mxGeometry x="690" y="1550" width="120" height="80" as="geometry" />
        </mxCell>
        <mxCell id="sGOGW33jDADOlJUQ6Ie_-58" value="Receive Question" style="rounded=0;whiteSpace=wrap;html=1;" vertex="1" parent="1">
          <mxGeometry x="320" y="1210" width="120" height="60" as="geometry" />
        </mxCell>
        <mxCell id="sGOGW33jDADOlJUQ6Ie_-59" value="" style="endArrow=classic;html=1;rounded=0;exitX=0.5;exitY=1;exitDx=0;exitDy=0;entryX=0.5;entryY=0;entryDx=0;entryDy=0;" edge="1" parent="1" source="sGOGW33jDADOlJUQ6Ie_-56" target="sGOGW33jDADOlJUQ6Ie_-58">
          <mxGeometry width="50" height="50" relative="1" as="geometry">
            <mxPoint x="290" y="1260" as="sourcePoint" />
            <mxPoint x="340" y="1210" as="targetPoint" />
          </mxGeometry>
        </mxCell>
        <mxCell id="sGOGW33jDADOlJUQ6Ie_-60" value="" style="endArrow=classic;html=1;rounded=0;exitX=0.5;exitY=1;exitDx=0;exitDy=0;" edge="1" parent="1" source="sGOGW33jDADOlJUQ6Ie_-58">
          <mxGeometry width="50" height="50" relative="1" as="geometry">
            <mxPoint x="290" y="1260" as="sourcePoint" />
            <mxPoint x="380" y="1350" as="targetPoint" />
          </mxGeometry>
        </mxCell>
        <mxCell id="sGOGW33jDADOlJUQ6Ie_-61" value="Send Answer" style="rounded=0;whiteSpace=wrap;html=1;" vertex="1" parent="1">
          <mxGeometry x="320" y="1350" width="120" height="60" as="geometry" />
        </mxCell>
        <mxCell id="sGOGW33jDADOlJUQ6Ie_-62" value="" style="endArrow=classic;html=1;rounded=0;" edge="1" parent="1">
          <mxGeometry width="50" height="50" relative="1" as="geometry">
            <mxPoint x="380" y="1310" as="sourcePoint" />
            <mxPoint x="560" y="1350" as="targetPoint" />
            <Array as="points">
              <mxPoint x="560" y="1310" />
            </Array>
          </mxGeometry>
        </mxCell>
        <mxCell id="sGOGW33jDADOlJUQ6Ie_-63" value="Request Life Line" style="rounded=0;whiteSpace=wrap;html=1;" vertex="1" parent="1">
          <mxGeometry x="500" y="1350" width="120" height="60" as="geometry" />
        </mxCell>
        <mxCell id="sGOGW33jDADOlJUQ6Ie_-64" value="" style="endArrow=classic;html=1;rounded=0;exitX=0;exitY=0.5;exitDx=0;exitDy=0;entryX=1;entryY=0.5;entryDx=0;entryDy=0;" edge="1" parent="1" source="sGOGW33jDADOlJUQ6Ie_-63" target="sGOGW33jDADOlJUQ6Ie_-61">
          <mxGeometry width="50" height="50" relative="1" as="geometry">
            <mxPoint x="290" y="1260" as="sourcePoint" />
            <mxPoint x="340" y="1210" as="targetPoint" />
          </mxGeometry>
        </mxCell>
        <mxCell id="sGOGW33jDADOlJUQ6Ie_-65" value="Surrender" style="rounded=0;whiteSpace=wrap;html=1;" vertex="1" parent="1">
          <mxGeometry x="690" y="1350" width="120" height="60" as="geometry" />
        </mxCell>
        <mxCell id="sGOGW33jDADOlJUQ6Ie_-67" value="Accept Challenge?" style="shape=parallelogram;perimeter=parallelogramPerimeter;whiteSpace=wrap;html=1;fixedSize=1;" vertex="1" parent="1">
          <mxGeometry x="710" y="760" width="140" height="60" as="geometry" />
        </mxCell>
        <mxCell id="sGOGW33jDADOlJUQ6Ie_-69" value="Accepted Response" style="shape=parallelogram;perimeter=parallelogramPerimeter;whiteSpace=wrap;html=1;fixedSize=1;" vertex="1" parent="1">
          <mxGeometry x="530" y="970" width="160" height="60" as="geometry" />
        </mxCell>
        <mxCell id="sGOGW33jDADOlJUQ6Ie_-70" value="" style="endArrow=classic;html=1;rounded=0;exitX=0.5;exitY=1;exitDx=0;exitDy=0;entryX=0.5;entryY=0;entryDx=0;entryDy=0;" edge="1" parent="1" source="sGOGW33jDADOlJUQ6Ie_-29" target="sGOGW33jDADOlJUQ6Ie_-69">
          <mxGeometry width="50" height="50" relative="1" as="geometry">
            <mxPoint x="660" y="890" as="sourcePoint" />
            <mxPoint x="710" y="840" as="targetPoint" />
          </mxGeometry>
        </mxCell>
        <mxCell id="sGOGW33jDADOlJUQ6Ie_-71" value="" style="endArrow=classic;html=1;rounded=0;exitX=0;exitY=0.5;exitDx=0;exitDy=0;entryX=0;entryY=0.5;entryDx=0;entryDy=0;" edge="1" parent="1" source="sGOGW33jDADOlJUQ6Ie_-69" target="sGOGW33jDADOlJUQ6Ie_-24">
          <mxGeometry width="50" height="50" relative="1" as="geometry">
            <mxPoint x="660" y="810" as="sourcePoint" />
            <mxPoint x="270" y="910" as="targetPoint" />
            <Array as="points">
              <mxPoint x="260" y="1000" />
              <mxPoint x="260" y="750" />
              <mxPoint x="260" y="620" />
            </Array>
          </mxGeometry>
        </mxCell>
        <mxCell id="sGOGW33jDADOlJUQ6Ie_-72" value="Yes" style="text;strokeColor=none;fillColor=none;align=left;verticalAlign=middle;spacingLeft=4;spacingRight=4;overflow=hidden;points=[[0,0.5],[1,0.5]];portConstraint=eastwest;rotatable=0;whiteSpace=wrap;html=1;" vertex="1" parent="1">
          <mxGeometry x="500" y="970" width="80" height="30" as="geometry" />
        </mxCell>
        <mxCell id="sGOGW33jDADOlJUQ6Ie_-75" value="" style="endArrow=classic;html=1;rounded=0;exitX=0.5;exitY=1;exitDx=0;exitDy=0;" edge="1" parent="1" source="sGOGW33jDADOlJUQ6Ie_-67">
          <mxGeometry width="50" height="50" relative="1" as="geometry">
            <mxPoint x="600" y="810" as="sourcePoint" />
            <mxPoint x="260" y="920" as="targetPoint" />
            <Array as="points">
              <mxPoint x="780" y="1060" />
              <mxPoint x="260" y="1060" />
            </Array>
          </mxGeometry>
        </mxCell>
        <mxCell id="sGOGW33jDADOlJUQ6Ie_-76" value="Yes" style="text;strokeColor=none;fillColor=none;align=left;verticalAlign=middle;spacingLeft=4;spacingRight=4;overflow=hidden;points=[[0,0.5],[1,0.5]];portConstraint=eastwest;rotatable=0;whiteSpace=wrap;html=1;" vertex="1" parent="1">
          <mxGeometry x="780" y="820" width="80" height="30" as="geometry" />
        </mxCell>
        <mxCell id="sGOGW33jDADOlJUQ6Ie_-77" value="" style="endArrow=classic;html=1;rounded=0;exitX=1;exitY=0.5;exitDx=0;exitDy=0;entryX=1;entryY=0.5;entryDx=0;entryDy=0;" edge="1" parent="1" source="sGOGW33jDADOlJUQ6Ie_-69" target="sGOGW33jDADOlJUQ6Ie_-12">
          <mxGeometry width="50" height="50" relative="1" as="geometry">
            <mxPoint x="600" y="810" as="sourcePoint" />
            <mxPoint x="650" y="760" as="targetPoint" />
            <Array as="points">
              <mxPoint x="1210" y="1000" />
              <mxPoint x="1210" y="480" />
            </Array>
          </mxGeometry>
        </mxCell>
        <mxCell id="sGOGW33jDADOlJUQ6Ie_-78" value="No" style="text;strokeColor=none;fillColor=none;align=left;verticalAlign=middle;spacingLeft=4;spacingRight=4;overflow=hidden;points=[[0,0.5],[1,0.5]];portConstraint=eastwest;rotatable=0;whiteSpace=wrap;html=1;" vertex="1" parent="1">
          <mxGeometry x="690" y="970" width="80" height="30" as="geometry" />
        </mxCell>
        <mxCell id="sGOGW33jDADOlJUQ6Ie_-79" value="" style="endArrow=classic;html=1;rounded=0;exitX=1;exitY=0.5;exitDx=0;exitDy=0;" edge="1" parent="1" source="sGOGW33jDADOlJUQ6Ie_-67">
          <mxGeometry width="50" height="50" relative="1" as="geometry">
            <mxPoint x="600" y="810" as="sourcePoint" />
            <mxPoint x="1210" y="790" as="targetPoint" />
          </mxGeometry>
        </mxCell>
        <mxCell id="sGOGW33jDADOlJUQ6Ie_-80" value="No" style="text;strokeColor=none;fillColor=none;align=left;verticalAlign=middle;spacingLeft=4;spacingRight=4;overflow=hidden;points=[[0,0.5],[1,0.5]];portConstraint=eastwest;rotatable=0;whiteSpace=wrap;html=1;" vertex="1" parent="1">
          <mxGeometry x="840" y="790" width="80" height="30" as="geometry" />
        </mxCell>
        <mxCell id="sGOGW33jDADOlJUQ6Ie_-83" value="" style="endArrow=classic;html=1;rounded=0;exitX=1;exitY=0.5;exitDx=0;exitDy=0;entryX=0;entryY=0.5;entryDx=0;entryDy=0;" edge="1" parent="1" source="sGOGW33jDADOlJUQ6Ie_-63" target="sGOGW33jDADOlJUQ6Ie_-65">
          <mxGeometry width="50" height="50" relative="1" as="geometry">
            <mxPoint x="420" y="1420" as="sourcePoint" />
            <mxPoint x="470" y="1370" as="targetPoint" />
          </mxGeometry>
        </mxCell>
        <mxCell id="sGOGW33jDADOlJUQ6Ie_-84" value="" style="endArrow=classic;html=1;rounded=0;exitX=1;exitY=0.5;exitDx=0;exitDy=0;entryX=0.5;entryY=0;entryDx=0;entryDy=0;" edge="1" parent="1" source="sGOGW33jDADOlJUQ6Ie_-58" target="sGOGW33jDADOlJUQ6Ie_-65">
          <mxGeometry width="50" height="50" relative="1" as="geometry">
            <mxPoint x="420" y="1420" as="sourcePoint" />
            <mxPoint x="470" y="1370" as="targetPoint" />
            <Array as="points">
              <mxPoint x="750" y="1240" />
            </Array>
          </mxGeometry>
        </mxCell>
        <mxCell id="sGOGW33jDADOlJUQ6Ie_-86" value="" style="endArrow=classic;html=1;rounded=0;exitX=0.5;exitY=1;exitDx=0;exitDy=0;" edge="1" parent="1" source="sGOGW33jDADOlJUQ6Ie_-61">
          <mxGeometry width="50" height="50" relative="1" as="geometry">
            <mxPoint x="420" y="1420" as="sourcePoint" />
            <mxPoint x="380" y="1460" as="targetPoint" />
          </mxGeometry>
        </mxCell>
        <mxCell id="sGOGW33jDADOlJUQ6Ie_-87" value="Correct Answer" style="shape=parallelogram;perimeter=parallelogramPerimeter;whiteSpace=wrap;html=1;fixedSize=1;" vertex="1" parent="1">
          <mxGeometry x="320" y="1460" width="120" height="60" as="geometry" />
        </mxCell>
        <mxCell id="sGOGW33jDADOlJUQ6Ie_-88" value="" style="endArrow=classic;html=1;rounded=0;exitX=0;exitY=0.5;exitDx=0;exitDy=0;entryX=0;entryY=0.5;entryDx=0;entryDy=0;" edge="1" parent="1" source="sGOGW33jDADOlJUQ6Ie_-87" target="sGOGW33jDADOlJUQ6Ie_-58">
          <mxGeometry width="50" height="50" relative="1" as="geometry">
            <mxPoint x="420" y="1420" as="sourcePoint" />
            <mxPoint x="470" y="1370" as="targetPoint" />
            <Array as="points">
              <mxPoint x="190" y="1490" />
              <mxPoint x="190" y="1240" />
            </Array>
          </mxGeometry>
        </mxCell>
        <mxCell id="sGOGW33jDADOlJUQ6Ie_-89" value="Yes" style="text;html=1;strokeColor=none;fillColor=none;align=center;verticalAlign=middle;whiteSpace=wrap;rounded=0;" vertex="1" parent="1">
          <mxGeometry x="270" y="1460" width="60" height="30" as="geometry" />
        </mxCell>
        <mxCell id="sGOGW33jDADOlJUQ6Ie_-90" value="" style="endArrow=classic;html=1;rounded=0;exitX=1;exitY=0.5;exitDx=0;exitDy=0;entryX=0;entryY=0.5;entryDx=0;entryDy=0;" edge="1" parent="1" source="sGOGW33jDADOlJUQ6Ie_-87" target="sGOGW33jDADOlJUQ6Ie_-91">
          <mxGeometry width="50" height="50" relative="1" as="geometry">
            <mxPoint x="420" y="1420" as="sourcePoint" />
            <mxPoint x="680" y="1490" as="targetPoint" />
          </mxGeometry>
        </mxCell>
        <mxCell id="sGOGW33jDADOlJUQ6Ie_-91" value="Receive Score" style="rounded=0;whiteSpace=wrap;html=1;" vertex="1" parent="1">
          <mxGeometry x="690" y="1460" width="120" height="60" as="geometry" />
        </mxCell>
        <mxCell id="sGOGW33jDADOlJUQ6Ie_-92" value="" style="endArrow=classic;html=1;rounded=0;exitX=0.5;exitY=1;exitDx=0;exitDy=0;entryX=0.5;entryY=0;entryDx=0;entryDy=0;" edge="1" parent="1" source="sGOGW33jDADOlJUQ6Ie_-65" target="sGOGW33jDADOlJUQ6Ie_-91">
          <mxGeometry width="50" height="50" relative="1" as="geometry">
            <mxPoint x="420" y="1420" as="sourcePoint" />
            <mxPoint x="470" y="1370" as="targetPoint" />
          </mxGeometry>
        </mxCell>
        <mxCell id="sGOGW33jDADOlJUQ6Ie_-93" value="" style="endArrow=classic;html=1;rounded=0;exitX=0.5;exitY=1;exitDx=0;exitDy=0;" edge="1" parent="1" source="sGOGW33jDADOlJUQ6Ie_-91" target="sGOGW33jDADOlJUQ6Ie_-57">
          <mxGeometry width="50" height="50" relative="1" as="geometry">
            <mxPoint x="420" y="1420" as="sourcePoint" />
            <mxPoint x="470" y="1370" as="targetPoint" />
          </mxGeometry>
        </mxCell>
        <mxCell id="sGOGW33jDADOlJUQ6Ie_-94" value="No" style="text;html=1;strokeColor=none;fillColor=none;align=center;verticalAlign=middle;whiteSpace=wrap;rounded=0;" vertex="1" parent="1">
          <mxGeometry x="430" y="1460" width="60" height="30" as="geometry" />
        </mxCell>
        <mxCell id="o2gdJQzme35ErxQrAIAd-2" value="" style="endArrow=classic;html=1;rounded=0;exitX=0;exitY=0.5;exitDx=0;exitDy=0;entryX=0;entryY=0.5;entryDx=0;entryDy=0;" edge="1" parent="1" source="sGOGW33jDADOlJUQ6Ie_-51" target="sGOGW33jDADOlJUQ6Ie_-12">
          <mxGeometry width="50" height="50" relative="1" as="geometry">
            <mxPoint x="700" y="810" as="sourcePoint" />
            <mxPoint x="50" y="620" as="targetPoint" />
            <Array as="points">
              <mxPoint x="50" y="720" />
              <mxPoint x="50" y="480" />
            </Array>
          </mxGeometry>
        </mxCell>
        <mxCell id="o2gdJQzme35ErxQrAIAd-3" value="Store Game Result" style="rounded=0;whiteSpace=wrap;html=1;" vertex="1" parent="1">
          <mxGeometry x="1910" y="1470" width="120" height="60" as="geometry" />
        </mxCell>
        <mxCell id="o2gdJQzme35ErxQrAIAd-4" value="" style="endArrow=classic;html=1;rounded=0;exitX=1;exitY=0.5;exitDx=0;exitDy=0;" edge="1" parent="1" source="56DCosw7rQej9qdlcNKe-32" target="o2gdJQzme35ErxQrAIAd-3">
          <mxGeometry width="50" height="50" relative="1" as="geometry">
            <mxPoint x="1870" y="1400" as="sourcePoint" />
            <mxPoint x="1950" y="1160" as="targetPoint" />
          </mxGeometry>
        </mxCell>
        <mxCell id="o2gdJQzme35ErxQrAIAd-5" value="" style="endArrow=none;html=1;rounded=0;" edge="1" parent="1">
          <mxGeometry width="50" height="50" relative="1" as="geometry">
            <mxPoint x="1970" y="1360" as="sourcePoint" />
            <mxPoint x="1970" y="1270" as="targetPoint" />
          </mxGeometry>
        </mxCell>
        <mxCell id="o2gdJQzme35ErxQrAIAd-6" value="" style="endArrow=classic;html=1;rounded=0;exitX=0.5;exitY=1;exitDx=0;exitDy=0;entryX=0.5;entryY=0;entryDx=0;entryDy=0;" edge="1" parent="1" source="56DCosw7rQej9qdlcNKe-34" target="56DCosw7rQej9qdlcNKe-32">
          <mxGeometry width="50" height="50" relative="1" as="geometry">
            <mxPoint x="1480" y="1310" as="sourcePoint" />
            <mxPoint x="1530" y="1260" as="targetPoint" />
          </mxGeometry>
        </mxCell>
        <mxCell id="o2gdJQzme35ErxQrAIAd-9" value="" style="endArrow=none;html=1;rounded=0;exitX=0.5;exitY=0;exitDx=0;exitDy=0;" edge="1" parent="1" source="o2gdJQzme35ErxQrAIAd-3">
          <mxGeometry width="50" height="50" relative="1" as="geometry">
            <mxPoint x="1480" y="1310" as="sourcePoint" />
            <mxPoint x="1970" y="1360" as="targetPoint" />
          </mxGeometry>
        </mxCell>
        <mxCell id="O86maG589rp5_lnj7lRw-2" style="edgeStyle=orthogonalEdgeStyle;rounded=0;orthogonalLoop=1;jettySize=auto;html=1;exitX=0.5;exitY=1;exitDx=0;exitDy=0;" edge="1" parent="1" source="O86maG589rp5_lnj7lRw-1" target="sGOGW33jDADOlJUQ6Ie_-16">
          <mxGeometry relative="1" as="geometry" />
        </mxCell>
        <mxCell id="O86maG589rp5_lnj7lRw-1" value="Get Active Player List" style="rounded=0;whiteSpace=wrap;html=1;" vertex="1" parent="1">
          <mxGeometry x="550" y="590" width="120" height="60" as="geometry" />
        </mxCell>
      </root>
    </mxGraphModel>
  </diagram>
</mxfile>
